<svg width="24" height="24" viewBox="0 0 24 24" fill="none" xmlns="http://www.w3.org/2000/svg">
<path d="M17.4203 12.0187C17.4203 9.04862 15.0126 6.64091 12.0426 6.64091C9.36097 6.64091 7.13781 8.60364 6.73125 11.1709C7.13893 11.1377 7.54577 11.1369 7.95179 11.1665C8.34529 9.26783 10.0273 7.84091 12.0426 7.84091C14.3498 7.84091 16.2203 9.71136 16.2203 12.0187C16.2203 12.4927 16.1413 12.9484 15.9959 13.3732C16.4644 13.3063 16.913 13.192 17.3215 13.0496C17.3863 12.7159 17.4203 12.3713 17.4203 12.0187Z" fill="white"/>
<path d="M6.09145 5.25783L6.00835 5.1884C5.77451 5.0264 5.4512 5.04955 5.24292 5.25783C5.00861 5.49215 5.00861 5.87204 5.24292 6.10636L6.2729 7.13634L6.356 7.20576C6.58983 7.36776 6.91315 7.34461 7.12142 7.13634C7.35575 6.90201 7.35575 6.52212 7.12142 6.28781L6.09145 5.25783Z" fill="white"/>
<path d="M18.8863 6.02326C19.0483 5.78942 19.0252 5.46611 18.817 5.25784C18.5826 5.02351 18.2027 5.02351 17.9683 5.25784L16.9384 6.28781L16.869 6.37091C16.707 6.60475 16.7302 6.92806 16.9384 7.13634C17.1727 7.37065 17.5526 7.37065 17.7869 7.13634L18.817 6.10636L18.8863 6.02326Z" fill="white"/>
<path d="M12.6245 2.92145C12.5736 2.64155 12.3287 2.42929 12.0341 2.42929C11.7027 2.42929 11.4341 2.69792 11.4341 3.02929V4.4859L11.4438 4.59375C11.4946 4.87365 11.7395 5.0859 12.0341 5.0859C12.3655 5.0859 12.6341 4.81728 12.6341 4.4859V3.02929L12.6245 2.92145Z" fill="white"/>
<path d="M4.48745 14.3267C5.75511 13.6351 6.93085 13.4458 8.08458 13.5906C9.25361 13.7374 10.4355 14.2318 11.6968 14.9675C13.1398 15.809 14.7977 15.962 16.2972 15.7544C17.7942 15.5471 19.1896 14.9735 20.1488 14.2883C20.4185 14.0956 20.481 13.7209 20.2884 13.4513C20.0957 13.1816 19.721 13.1191 19.4514 13.3117C18.6607 13.8766 17.451 14.3832 16.1327 14.5657C14.817 14.748 13.4494 14.6005 12.3014 13.9309C10.9719 13.1554 9.62931 12.575 8.23403 12.4C6.82347 12.2228 5.39512 12.4645 3.91278 13.2732C3.62188 13.4318 3.51471 13.7964 3.67339 14.0873C3.83208 14.3782 4.19655 14.4853 4.48745 14.3267Z" fill="white"/>
<path d="M4.48745 16.7267C5.75511 16.0351 6.93085 15.8458 8.08458 15.9906C9.25361 16.1374 10.4355 16.6318 11.6968 17.3675C13.1398 18.209 14.7977 18.362 16.2972 18.1544C17.7942 17.9471 19.1896 17.3735 20.1488 16.6883C20.4185 16.4956 20.481 16.1209 20.2884 15.8513C20.0957 15.5816 19.721 15.5191 19.4514 15.7117C18.6607 16.2766 17.451 16.7832 16.1327 16.9657C14.817 17.148 13.4494 17.0005 12.3014 16.3309C10.9719 15.5554 9.62931 14.975 8.23403 14.8C6.82347 14.6228 5.39512 14.8645 3.91278 15.6732C3.62188 15.8318 3.51471 16.1964 3.67339 16.4873C3.83208 16.7782 4.19655 16.8853 4.48745 16.7267Z" fill="white"/>
<path d="M8.08458 18.3906C6.93085 18.2458 5.75511 18.4351 4.48745 19.1267C4.19655 19.2853 3.83208 19.1782 3.67339 18.8873C3.51471 18.5964 3.62188 18.2318 3.91278 18.0732C5.39512 17.2645 6.82347 17.0228 8.23403 17.2C9.62931 17.375 10.9719 17.9554 12.3014 18.7309C13.4494 19.4005 14.817 19.548 16.1327 19.3657C17.451 19.1832 18.6607 18.6766 19.4514 18.1117C19.721 17.9191 20.0957 17.9816 20.2884 18.2513C20.481 18.5209 20.4185 18.8956 20.1488 19.0883C19.1896 19.7735 17.7942 20.3471 16.2972 20.5544C14.7977 20.762 13.1398 20.609 11.6968 19.7675C10.4355 19.0318 9.25361 18.5374 8.08458 18.3906Z" fill="white"/>
</svg>
